<svg viewBox="0 0 12 12" fill="none" xmlns="http://www.w3.org/2000/svg">
<path d="M6.84474 4.59522C6.84474 4.50995 6.78467 4.43648 6.7011 4.41955L4.44139 3.96176C4.34397 3.8048 4.21278 3.67363 4.05583 3.57619L3.59803 1.3165C3.58111 1.23292 3.50764 1.17285 3.42237 1.17285C3.3371 1.17285 3.26363 1.23292 3.2467 1.3165L2.78891 3.5762C2.63195 3.67363 2.50076 3.80481 2.40334 3.96176L0.143646 4.41956C0.0600697 4.43649 0 4.50996 0 4.59523C0 4.6805 0.0600697 4.75396 0.143646 4.77089L2.40334 5.2287C2.50076 5.38564 2.63193 5.51681 2.78891 5.61425L3.2467 7.87396C3.26363 7.95753 3.3371 8.0176 3.42237 8.0176C3.50764 8.0176 3.58111 7.95753 3.59803 7.87396L4.05583 5.61426C4.21279 5.51682 4.34397 5.38564 4.44139 5.2287L6.70109 4.77089C6.78467 4.75396 6.84474 4.68049 6.84474 4.59522Z" fill="#000000">
<animate attributeName="fill" values="#000000; #9ca3af" begin="1s" dur="2s" fill="freeze" repeatCount="indefinite" />
</path>
<path d="M10.0824 8.6312L8.42037 8.29449C8.34901 8.18475 8.25613 8.09187 8.14638 8.02048L7.80968 6.35848C7.79275 6.27491 7.71927 6.21484 7.63401 6.21484C7.54874 6.21484 7.47527 6.27491 7.45834 6.35849L7.12165 8.02048C7.01189 8.09187 6.91901 8.18474 6.84764 8.29449L5.18563 8.6312C5.10206 8.64812 5.04199 8.72159 5.04199 8.80686C5.04199 8.89213 5.10206 8.9656 5.18563 8.98253L6.84763 9.31923C6.91901 9.42898 7.01189 9.52186 7.12165 9.59324L7.45834 11.2552C7.47527 11.3388 7.54874 11.3989 7.63401 11.3989C7.71927 11.3989 7.79275 11.3388 7.80968 11.2552L8.14638 9.59324C8.25613 9.52186 8.34901 9.42897 8.42037 9.31923L10.0824 8.98253C10.166 8.9656 10.226 8.89213 10.226 8.80686C10.226 8.72159 10.166 8.64812 10.0824 8.6312Z" fill="#000000">
<animate attributeName="fill" values="#000000; #9ca3af" begin="1s" dur="1s" fill="freeze" repeatCount="indefinite" />
</path>/>
<path d="M11.8562 2.55914L10.3949 2.2631C10.3325 2.1692 10.2526 2.08926 10.1587 2.02681L9.86261 0.565512C9.84569 0.481945 9.77221 0.421875 9.68695 0.421875C9.60169 0.421875 9.52821 0.481945 9.51128 0.565521L9.21525 2.02681C9.12135 2.08925 9.04138 2.16921 8.97896 2.2631L7.51767 2.55914C7.43409 2.57607 7.37402 2.64954 7.37402 2.73481C7.37402 2.82008 7.43409 2.89355 7.51766 2.91047L8.97896 3.20652C9.04138 3.30041 9.12136 3.38037 9.21525 3.4428L9.51128 4.9041C9.52821 4.98767 9.60169 5.04774 9.68695 5.04774C9.77221 5.04774 9.84569 4.98767 9.86261 4.90411L10.1587 3.4428C10.2526 3.38037 10.3325 3.3004 10.3949 3.20652L11.8562 2.91047C11.9398 2.89355 11.9999 2.82008 11.9999 2.73481C11.9999 2.64954 11.9398 2.57607 11.8562 2.55914Z" fill="#000000">
<animate attributeName="fill" values="#000000; #9ca3af" begin="0s" dur="1.5s" fill="freeze" repeatCount="indefinite" />
</path>
</svg>
