<svg width="65" height="65" viewBox="0 0 65 65" fill="none" xmlns="http://www.w3.org/2000/svg">
<path d="M20.9001 48.7874C24.4317 50.1295 28.2625 50.8643 32.2649 50.8643C44.7922 50.8643 55.6381 43.6658 60.8921 33.1797C58.2625 27.9315 54.2323 23.5068 49.2915 20.396L47.8387 21.8488C52.361 24.6007 56.0985 28.5155 58.636 33.1797C53.5508 42.5267 43.6463 48.8643 32.2649 48.8643C28.8322 48.8643 25.5338 48.2877 22.4615 47.226L20.9001 48.7874Z" fill="#e0e0e0"/>
<path d="M16.6914 44.5108C12.169 41.7589 8.43136 37.844 5.89379 33.1797C10.979 23.8327 20.8835 17.4951 32.2649 17.4951C35.6978 17.4951 38.9963 18.0717 42.0687 19.1335L43.6301 17.5721C40.0984 16.23 36.2674 15.4951 32.2649 15.4951C19.7376 15.4951 8.89166 22.6936 3.6377 33.1797C6.2673 38.428 10.2977 42.8527 15.2386 45.9636L16.6914 44.5108Z" fill="#e0e0e0"/>
<path d="M30.0188 39.6673L35.0008 39.6239L38.756 35.8026L38.7138 30.9723L30.0188 39.6673Z" fill="#e0e0e0"/>
<path d="M34.5075 26.6934L29.5306 26.7368L25.7754 30.5581L25.8175 35.3834L34.5075 26.6934Z" fill="#e0e0e0"/>
<path fill-rule="evenodd" clip-rule="evenodd" d="M8.92959 55.0994L54.1844 9.84458L55.5986 11.2588L10.3438 56.5136L8.92959 55.0994Z" fill="#e0e0e0"/>
</svg>
