<svg viewBox="0 0 12 12" xmlns="http://www.w3.org/2000/svg" fill="none"><g fill="currentColor" clip-path="url(#a)"><path d="m5.657 1.394.707.707L.707 7.758l-.53-.53a.25.25 0 0 1 0-.354l5.48-5.48ZM9.9 5.636l.707.707-5.48 5.48a.25.25 0 0 1-.354 0l-.53-.53 5.656-5.657Z"/><path d="m1.414 7.05 3.536 3.536-.707.707L.707 7.758l.707-.708ZM6.187.863a.25.25 0 0 1 .354 0l.53.53-.707.708-.707-.707.53-.53ZM7.601.863a.25.25 0 0 1 .354 0l.53.53-.707.708-.707-.707.53-.53ZM9.016.863a.25.25 0 0 1 .353 0l1.768 1.768a.25.25 0 0 1 0 .354l-.53.53-2.122-2.121.53-.53ZM10.607 3.515l.53.53a.25.25 0 0 1 0 .354l-.53.53-.708-.707.708-.707ZM10.607 4.93l.53.53a.25.25 0 0 1 0 .353l-.53.53-.708-.707.708-.707ZM9.192 4.222a1 1 0 1 1-1.414-1.414 1 1 0 0 1 1.414 1.414ZM5.303 4.576a.5.5 0 0 1 .707.707L3.89 7.404a.5.5 0 0 1-.708-.707l2.121-2.121ZM6.717 5.99a.5.5 0 1 1 .708.707L5.303 8.818a.5.5 0 1 1-.707-.707L6.717 5.99Z"/></g><defs><clipPath id="a"><path fill="none" d="M0 0h12v12H0z"/></clipPath></defs></svg>