<svg viewBox="0 0 32 12" xmlns="http://www.w3.org/2000/svg" fill="none">
  <path fill="currentColor" fill-rule="evenodd" d="M22.49 10.099 22 10l-.49-.099V9.9l.001-.004.002-.01a1.781 1.781 0 0 1 .036-.136c.026-.085.066-.201.125-.338.119-.274.317-.635.642-.995C22.977 7.68 24.115 7 26 7c1.885 0 3.023.68 3.684 1.416.324.36.523.72.642.995a3.094 3.094 0 0 1 .16.473l.003.01v.007L30 10l-.49.099.001.001v.002l-.002-.01a2.077 2.077 0 0 0-.1-.284 2.686 2.686 0 0 0-.467-.724C28.477 8.57 27.615 8 26 8c-1.615 0-2.477.57-2.94 1.084a2.685 2.685 0 0 0-.468.724 2.093 2.093 0 0 0-.1.284l-.003.01V10.1l.001-.001Z" clip-rule="evenodd"/>
  <path fill="currentColor" d="M22.616 1.668a.472.472 0 0 1 .099-.689 6 6 0 1 1-2.126 2.429c.12-.25.43-.33.67-.19.24.141.317.448.201.701a4.994 4.994 0 1 0 1.877-2.143c-.235.148-.55.111-.721-.108Z"/>
  <path fill="currentColor" fill-rule="evenodd" d="M28.75 5.218a2.75 2.75 0 1 1-5.5 0 2.75 2.75 0 0 1 5.5 0ZM26 6.968a1.75 1.75 0 1 0 0-3.5 1.75 1.75 0 0 0 0 3.5Z" clip-rule="evenodd"/>
  <path fill="currentColor" d="M12.715.98a.472.472 0 0 0-.1.688c.172.22.487.256.722.108a4.994 4.994 0 1 1-1.877 2.143c.116-.253.038-.56-.201-.7a.472.472 0 0 0-.67.189 6 6 0 1 0 10.96 4.873A4.978 4.978 0 0 1 21 6c0-.822.198-1.598.55-2.282A5.999 5.999 0 0 0 12.715.98Z"/>
  <path fill="currentColor" fill-rule="evenodd" d="M2.616 1.668A.472.472 0 0 1 2.715.98a6 6 0 0 1 7.645.898c.516.546.92 1.16 1.198 1.825A4.98 4.98 0 0 0 11 6c0 .816.195 1.586.542 2.267a5.919 5.919 0 0 1-1.027 1.685A6 6 0 0 1 .588 3.408c.12-.25.43-.33.67-.19.24.141.317.448.201.701a4.994 4.994 0 0 0 .48 4.99c.102-.159.225-.326.376-.493.41-.456 1.003-.89 1.843-1.155a2.75 2.75 0 1 1 3.682 0c.84.264 1.433.699 1.843 1.155.15.167.274.334.375.493a4.994 4.994 0 0 0-6.722-7.133.545.545 0 0 1-.721-.108Zm.463 8.382a4.997 4.997 0 0 1-.436-.353c.088-.178.22-.395.416-.613C3.522 8.57 4.385 8 6 8c1.616 0 2.478.57 2.942 1.084.195.218.328.435.416.613a4.994 4.994 0 0 1-6.278.353ZM7.75 5.218a1.75 1.75 0 1 1-3.5 0 1.75 1.75 0 0 1 3.5 0Z" clip-rule="evenodd"/>
  <path fill="currentColor" d="M15.994 5.217a.112.112 0 0 0-.084-.112l-1.319-.292a.732.732 0 0 0-.225-.246L14.1 3.126c-.01-.053-.053-.092-.102-.092-.05 0-.093.039-.103.092l-.267 1.441a.732.732 0 0 0-.225.246l-1.318.292a.112.112 0 0 0-.084.112c0 .054.035.101.084.112l1.318.292c.057.1.134.184.225.246l.267 1.441c.01.054.053.092.103.092.05 0 .092-.038.102-.092l.267-1.441a.732.732 0 0 0 .225-.246l1.319-.292a.112.112 0 0 0 .084-.112ZM17.882 7.788l-.97-.214a.571.571 0 0 0-.16-.175l-.196-1.06c-.01-.053-.053-.092-.102-.092-.05 0-.093.039-.103.092l-.196 1.06a.57.57 0 0 0-.16.175l-.97.214a.112.112 0 0 0-.084.113c0 .054.035.1.084.112l.97.214a.57.57 0 0 0 .16.175l.196 1.06c.01.053.053.092.103.092.05 0 .092-.039.102-.092l.197-1.06a.571.571 0 0 0 .16-.175l.97-.214a.112.112 0 0 0 .083-.112.112.112 0 0 0-.084-.113ZM18.916 3.917l-.852-.189a.518.518 0 0 0-.138-.15l-.173-.933c-.01-.053-.053-.091-.102-.091-.05 0-.093.038-.103.091l-.173.932a.518.518 0 0 0-.137.151l-.853.189a.112.112 0 0 0-.084.112c0 .054.035.101.084.112l.852.189c.037.06.084.11.138.15l.173.932c.01.054.053.092.103.092.05 0 .092-.038.102-.092l.173-.932a.518.518 0 0 0 .138-.15l.852-.189A.112.112 0 0 0 19 4.029a.112.112 0 0 0-.084-.112Z"/>
</svg>
