<svg viewBox="0 0 12 12" xmlns="http://www.w3.org/2000/svg" fill="none">
  <path fill="currentColor" fill-rule="evenodd" d="M2.49 10.099 2 10l-.49-.099V9.9l.001-.004.002-.01a1.489 1.489 0 0 1 .036-.136 3.09 3.09 0 0 1 .125-.338c.119-.274.318-.635.642-.995C2.977 7.68 4.115 7 6 7c1.885 0 3.023.68 3.684 1.416.324.36.523.72.642.995a3.094 3.094 0 0 1 .16.473l.003.01V9.9l.001.002L10 10l-.49.099v.003l-.002-.01a2.09 2.09 0 0 0-.1-.284 2.686 2.686 0 0 0-.467-.724C8.477 8.57 7.615 8 6 8c-1.615 0-2.477.57-2.94 1.084a2.686 2.686 0 0 0-.468.724 2.09 2.09 0 0 0-.1.284l-.002.01v-.003Zm0 .002c0 .001 0 .001 0 0Z" clip-rule="evenodd"/>
  <path fill="currentColor" d="M11.467 6.575a.472.472 0 0 1 .427.55A6 6 0 1 1 6.125 0a.472.472 0 0 1 .45.532.545.545 0 0 1-.555.473 4.994 4.994 0 1 0 4.869 6.013.545.545 0 0 1 .578-.444Z"/>
  <path fill="currentColor" fill-rule="evenodd" d="M8.75 5.218a2.75 2.75 0 1 1-5.5 0 2.75 2.75 0 0 1 5.5 0ZM6 6.968a1.75 1.75 0 1 0 0-3.5 1.75 1.75 0 0 0 0 3.5Z" clip-rule="evenodd"/>
  <path fill="currentColor" d="M10 0a.5.5 0 0 0-.5.5v1h-1a.5.5 0 0 0 0 1h1v1a.5.5 0 1 0 1 0v-1h1a.5.5 0 0 0 0-1h-1v-1A.5.5 0 0 0 10 0Z"/>
</svg>
